<mxfile host="app.diagrams.net" agent="Mozilla/5.0 (Macintosh; Intel Mac OS X 10_15_7) AppleWebKit/537.36 (KHTML, like Gecko) Chrome/129.0.0.0 Safari/537.36" version="24.7.17">
  <diagram name="第 1 页" id="fmgK1iZ8h7V2Fk6c6cN7">
    <mxGraphModel dx="1430" dy="797" grid="1" gridSize="10" guides="1" tooltips="1" connect="1" arrows="1" fold="1" page="1" pageScale="1" pageWidth="1920" pageHeight="1200" math="0" shadow="0">
      <root>
        <mxCell id="0" />
        <mxCell id="1" parent="0" />
        <mxCell id="XDgvkcOe5QFC_7SKI6ll-1" value="工作空间" style="swimlane;fontStyle=0;childLayout=stackLayout;horizontal=1;startSize=26;fillColor=none;horizontalStack=0;resizeParent=1;resizeParentMax=0;resizeLast=0;collapsible=1;marginBottom=0;whiteSpace=wrap;html=1;" parent="1" vertex="1">
          <mxGeometry x="480" y="270" width="140" height="52" as="geometry" />
        </mxCell>
        <mxCell id="XDgvkcOe5QFC_7SKI6ll-2" value="名称" style="text;strokeColor=none;fillColor=none;align=left;verticalAlign=top;spacingLeft=4;spacingRight=4;overflow=hidden;rotatable=0;points=[[0,0.5],[1,0.5]];portConstraint=eastwest;whiteSpace=wrap;html=1;" parent="XDgvkcOe5QFC_7SKI6ll-1" vertex="1">
          <mxGeometry y="26" width="140" height="26" as="geometry" />
        </mxCell>
        <mxCell id="XDgvkcOe5QFC_7SKI6ll-5" value="用户" style="swimlane;fontStyle=0;childLayout=stackLayout;horizontal=1;startSize=26;fillColor=none;horizontalStack=0;resizeParent=1;resizeParentMax=0;resizeLast=0;collapsible=1;marginBottom=0;whiteSpace=wrap;html=1;" parent="1" vertex="1">
          <mxGeometry x="559" y="410" width="140" height="52" as="geometry" />
        </mxCell>
        <mxCell id="XDgvkcOe5QFC_7SKI6ll-6" value="邮箱" style="text;strokeColor=none;fillColor=none;align=left;verticalAlign=top;spacingLeft=4;spacingRight=4;overflow=hidden;rotatable=0;points=[[0,0.5],[1,0.5]];portConstraint=eastwest;whiteSpace=wrap;html=1;" parent="XDgvkcOe5QFC_7SKI6ll-5" vertex="1">
          <mxGeometry y="26" width="140" height="26" as="geometry" />
        </mxCell>
        <mxCell id="XDgvkcOe5QFC_7SKI6ll-9" value="聊天室" style="swimlane;fontStyle=0;childLayout=stackLayout;horizontal=1;startSize=26;fillColor=none;horizontalStack=0;resizeParent=1;resizeParentMax=0;resizeLast=0;collapsible=1;marginBottom=0;whiteSpace=wrap;html=1;" parent="1" vertex="1">
          <mxGeometry x="570" y="579" width="140" height="78" as="geometry" />
        </mxCell>
        <mxCell id="XDgvkcOe5QFC_7SKI6ll-46" value=":类型" style="text;strokeColor=none;fillColor=none;align=left;verticalAlign=top;spacingLeft=4;spacingRight=4;overflow=hidden;rotatable=0;points=[[0,0.5],[1,0.5]];portConstraint=eastwest;whiteSpace=wrap;html=1;" parent="XDgvkcOe5QFC_7SKI6ll-9" vertex="1">
          <mxGeometry y="26" width="140" height="26" as="geometry" />
        </mxCell>
        <mxCell id="XDgvkcOe5QFC_7SKI6ll-10" value="成员" style="text;strokeColor=none;fillColor=none;align=left;verticalAlign=top;spacingLeft=4;spacingRight=4;overflow=hidden;rotatable=0;points=[[0,0.5],[1,0.5]];portConstraint=eastwest;whiteSpace=wrap;html=1;" parent="XDgvkcOe5QFC_7SKI6ll-9" vertex="1">
          <mxGeometry y="52" width="140" height="26" as="geometry" />
        </mxCell>
        <mxCell id="XDgvkcOe5QFC_7SKI6ll-13" value="消息" style="swimlane;fontStyle=0;childLayout=stackLayout;horizontal=1;startSize=26;fillColor=none;horizontalStack=0;resizeParent=1;resizeParentMax=0;resizeLast=0;collapsible=1;marginBottom=0;whiteSpace=wrap;html=1;" parent="1" vertex="1">
          <mxGeometry x="820" y="579" width="140" height="78" as="geometry" />
        </mxCell>
        <mxCell id="XDgvkcOe5QFC_7SKI6ll-14" value="聊天室 ID" style="text;strokeColor=none;fillColor=none;align=left;verticalAlign=top;spacingLeft=4;spacingRight=4;overflow=hidden;rotatable=0;points=[[0,0.5],[1,0.5]];portConstraint=eastwest;whiteSpace=wrap;html=1;" parent="XDgvkcOe5QFC_7SKI6ll-13" vertex="1">
          <mxGeometry y="26" width="140" height="26" as="geometry" />
        </mxCell>
        <mxCell id="XDgvkcOe5QFC_7SKI6ll-43" value="用户 ID" style="text;strokeColor=none;fillColor=none;align=left;verticalAlign=top;spacingLeft=4;spacingRight=4;overflow=hidden;rotatable=0;points=[[0,0.5],[1,0.5]];portConstraint=eastwest;whiteSpace=wrap;html=1;" parent="XDgvkcOe5QFC_7SKI6ll-13" vertex="1">
          <mxGeometry y="52" width="140" height="26" as="geometry" />
        </mxCell>
        <mxCell id="XDgvkcOe5QFC_7SKI6ll-17" value="&amp;lt;&amp;lt;enumeration&amp;gt;&amp;gt;&lt;br&gt;&lt;b&gt;类型&lt;/b&gt;" style="swimlane;fontStyle=0;align=center;verticalAlign=top;childLayout=stackLayout;horizontal=1;startSize=40;horizontalStack=0;resizeParent=1;resizeParentMax=0;resizeLast=0;collapsible=0;marginBottom=0;html=1;whiteSpace=wrap;" parent="1" vertex="1">
          <mxGeometry x="260" y="440" width="140" height="160" as="geometry" />
        </mxCell>
        <mxCell id="XDgvkcOe5QFC_7SKI6ll-18" value="单人" style="text;html=1;strokeColor=none;fillColor=none;align=left;verticalAlign=middle;spacingLeft=4;spacingRight=4;overflow=hidden;rotatable=0;points=[[0,0.5],[1,0.5]];portConstraint=eastwest;whiteSpace=wrap;" parent="XDgvkcOe5QFC_7SKI6ll-17" vertex="1">
          <mxGeometry y="40" width="140" height="30" as="geometry" />
        </mxCell>
        <mxCell id="XDgvkcOe5QFC_7SKI6ll-19" value="群组" style="text;html=1;strokeColor=none;fillColor=none;align=left;verticalAlign=middle;spacingLeft=4;spacingRight=4;overflow=hidden;rotatable=0;points=[[0,0.5],[1,0.5]];portConstraint=eastwest;whiteSpace=wrap;" parent="XDgvkcOe5QFC_7SKI6ll-17" vertex="1">
          <mxGeometry y="70" width="140" height="30" as="geometry" />
        </mxCell>
        <mxCell id="XDgvkcOe5QFC_7SKI6ll-20" value="私人频道" style="text;html=1;strokeColor=none;fillColor=none;align=left;verticalAlign=middle;spacingLeft=4;spacingRight=4;overflow=hidden;rotatable=0;points=[[0,0.5],[1,0.5]];portConstraint=eastwest;whiteSpace=wrap;" parent="XDgvkcOe5QFC_7SKI6ll-17" vertex="1">
          <mxGeometry y="100" width="140" height="30" as="geometry" />
        </mxCell>
        <mxCell id="XDgvkcOe5QFC_7SKI6ll-21" value="多人&lt;span style=&quot;background-color: initial;&quot;&gt;频道&lt;/span&gt;" style="text;html=1;strokeColor=none;fillColor=none;align=left;verticalAlign=middle;spacingLeft=4;spacingRight=4;overflow=hidden;rotatable=0;points=[[0,0.5],[1,0.5]];portConstraint=eastwest;whiteSpace=wrap;" parent="XDgvkcOe5QFC_7SKI6ll-17" vertex="1">
          <mxGeometry y="130" width="140" height="30" as="geometry" />
        </mxCell>
        <mxCell id="XDgvkcOe5QFC_7SKI6ll-23" value="" style="endArrow=none;startArrow=none;endFill=0;startFill=0;endSize=8;html=1;verticalAlign=bottom;labelBackgroundColor=none;strokeWidth=3;rounded=0;exitX=1;exitY=0.5;exitDx=0;exitDy=0;entryX=0;entryY=0.5;entryDx=0;entryDy=0;" parent="1" source="XDgvkcOe5QFC_7SKI6ll-9" target="XDgvkcOe5QFC_7SKI6ll-14" edge="1">
          <mxGeometry width="160" relative="1" as="geometry">
            <mxPoint x="720" y="695.5" as="sourcePoint" />
            <mxPoint x="880" y="695.5" as="targetPoint" />
          </mxGeometry>
        </mxCell>
        <mxCell id="XDgvkcOe5QFC_7SKI6ll-24" value="1..1" style="edgeLabel;html=1;align=center;verticalAlign=middle;resizable=0;points=[];" parent="XDgvkcOe5QFC_7SKI6ll-23" vertex="1" connectable="0">
          <mxGeometry x="-0.8547" y="1" relative="1" as="geometry">
            <mxPoint x="4" y="-9" as="offset" />
          </mxGeometry>
        </mxCell>
        <mxCell id="XDgvkcOe5QFC_7SKI6ll-25" value="0..*" style="edgeLabel;html=1;align=center;verticalAlign=middle;resizable=0;points=[];" parent="XDgvkcOe5QFC_7SKI6ll-23" vertex="1" connectable="0">
          <mxGeometry x="0.809" y="1" relative="1" as="geometry">
            <mxPoint x="-2" y="-10" as="offset" />
          </mxGeometry>
        </mxCell>
        <mxCell id="XDgvkcOe5QFC_7SKI6ll-26" value="除了类型外，其他都必须属于某个工作空间" style="shape=note2;boundedLbl=1;whiteSpace=wrap;html=1;size=25;verticalAlign=top;align=center;" parent="1" vertex="1">
          <mxGeometry x="270" y="280" width="120" height="80" as="geometry" />
        </mxCell>
        <mxCell id="XDgvkcOe5QFC_7SKI6ll-27" value="" style="endArrow=none;startArrow=none;endFill=0;startFill=0;endSize=8;html=1;verticalAlign=bottom;dashed=1;labelBackgroundColor=none;dashPattern=10 10;rounded=0;exitX=0;exitY=0;exitDx=120;exitDy=42.5;exitPerimeter=0;entryX=0;entryY=0.5;entryDx=0;entryDy=0;" parent="1" source="XDgvkcOe5QFC_7SKI6ll-26" target="XDgvkcOe5QFC_7SKI6ll-2" edge="1">
          <mxGeometry x="-0.0024" width="160" relative="1" as="geometry">
            <mxPoint x="370" y="390" as="sourcePoint" />
            <mxPoint x="479.58000000000015" y="330.606" as="targetPoint" />
            <mxPoint as="offset" />
          </mxGeometry>
        </mxCell>
        <mxCell id="XDgvkcOe5QFC_7SKI6ll-28" value="" style="endArrow=none;startArrow=none;endFill=0;startFill=0;endSize=8;html=1;verticalAlign=bottom;labelBackgroundColor=none;strokeWidth=3;rounded=0;exitX=0.25;exitY=0;exitDx=0;exitDy=0;entryX=0.329;entryY=1.04;entryDx=0;entryDy=0;entryPerimeter=0;" parent="1" source="XDgvkcOe5QFC_7SKI6ll-9" target="XDgvkcOe5QFC_7SKI6ll-6" edge="1">
          <mxGeometry width="160" relative="1" as="geometry">
            <mxPoint x="590" y="580" as="sourcePoint" />
            <mxPoint x="607.04" y="489.45600000000013" as="targetPoint" />
          </mxGeometry>
        </mxCell>
        <mxCell id="XDgvkcOe5QFC_7SKI6ll-29" value="0..*" style="edgeLabel;html=1;align=center;verticalAlign=middle;resizable=0;points=[];" parent="XDgvkcOe5QFC_7SKI6ll-28" vertex="1" connectable="0">
          <mxGeometry x="-0.8547" y="1" relative="1" as="geometry">
            <mxPoint x="-13" y="-7" as="offset" />
          </mxGeometry>
        </mxCell>
        <mxCell id="XDgvkcOe5QFC_7SKI6ll-30" value="1..*" style="edgeLabel;html=1;align=center;verticalAlign=middle;resizable=0;points=[];" parent="XDgvkcOe5QFC_7SKI6ll-28" vertex="1" connectable="0">
          <mxGeometry x="0.809" y="1" relative="1" as="geometry">
            <mxPoint x="-13" y="-2" as="offset" />
          </mxGeometry>
        </mxCell>
        <mxCell id="XDgvkcOe5QFC_7SKI6ll-31" value="管理员" style="edgeLabel;html=1;align=center;verticalAlign=middle;resizable=0;points=[];" parent="XDgvkcOe5QFC_7SKI6ll-28" vertex="1" connectable="0">
          <mxGeometry x="0.7311" y="1" relative="1" as="geometry">
            <mxPoint x="21" as="offset" />
          </mxGeometry>
        </mxCell>
      </root>
    </mxGraphModel>
  </diagram>
</mxfile>
